<svg width="73" height="80" viewBox="0 0 73 80" fill="none" xmlns="http://www.w3.org/2000/svg">
<path d="M42.1272 38.1941L55.1373 23.9451C39.2774 -19.4217 22.9219 5.87558 16.7266 23.9451C18.7917 26.2167 24.2848 32.2467 29.7366 38.1941C35.1885 44.1416 40.2686 40.6722 42.1272 38.1941Z" fill="#0A3E5E"/>
<path d="M52.0973 50.1814L62.6292 39.6494C64.7976 45.1219 69.6299 57.306 71.6124 62.2622C73.5949 67.2184 69.9603 72.7941 67.8952 74.9625C64.0748 71.2453 55.5666 62.8817 52.0973 59.1645C48.6279 55.4474 50.6517 51.627 52.0973 50.1814Z" fill="#3674B0"/>
<path d="M20.0883 50.1814L9.55632 39.6494C7.38798 45.1219 2.55566 57.306 0.573175 62.2622C-1.40932 67.2184 2.22525 72.7941 4.29034 74.9625C8.11076 71.2453 16.6189 62.8817 20.0883 59.1645C23.5577 55.4474 21.5339 51.627 20.0883 50.1814Z" fill="#B5B8BC"/>
<path d="M29.7367 72.0515L22.9219 79.1761L48.3225 79.1761C48.2193 79.0729 46.8356 77.5034 42.1272 72.0515C37.171 66.104 31.8018 69.5734 29.7367 72.0515Z" fill="#D32829"/>
</svg>
