<svg width="35" height="35" viewBox="0 0 35 35" fill="none" xmlns="http://www.w3.org/2000/svg">
<path d="M20.4247 16.8841L26.7325 10.5852C19.043 -8.58556 11.1131 2.59736 8.10938 10.5852C9.11062 11.5894 11.7739 14.255 14.4172 16.8841C17.0605 19.5132 19.5235 17.9796 20.4247 16.8841Z" fill="#0A3E5E"/>
<path d="M25.2569 22.1831L30.3632 17.5273C31.4145 19.9465 33.7574 25.3326 34.7186 27.5235C35.6798 29.7145 33.9176 32.1793 32.9164 33.1378C31.0641 31.4946 26.939 27.7974 25.2569 26.1542C23.5748 24.511 24.556 22.8221 25.2569 22.1831Z" fill="#3674B0"/>
<path d="M9.7392 22.1831L4.63286 17.5273C3.58156 19.9465 1.23865 25.3326 0.277456 27.5235C-0.683738 29.7145 1.07845 32.1793 2.07969 33.1378C3.93199 31.4946 8.05711 27.7974 9.7392 26.1542C11.4213 24.511 10.4401 22.8221 9.7392 22.1831Z" fill="#B5B8BC"/>
<path d="M14.4154 31.8501L11.1113 34.9996L23.4266 34.9996C23.3766 34.954 22.7057 34.2602 20.4229 31.8501C18.0199 29.221 15.4167 30.7546 14.4154 31.8501Z" fill="#D32829"/>
</svg>
