<svg width="20" height="20" viewBox="0 0 20 20" fill="none" xmlns="http://www.w3.org/2000/svg">
<path d="M11.6726 9.64828L15.2773 6.04882C10.883 -4.90615 6.35131 1.48424 4.63477 6.04882C5.20694 6.62265 6.72894 8.14588 8.23949 9.64828C9.75004 11.1507 11.1576 10.2743 11.6726 9.64828Z" fill="#0A3E5E"/>
<path d="M14.4331 12.6761L17.3512 10.0156C17.952 11.398 19.2909 14.4759 19.8402 15.7279C20.3895 16.9799 19.3824 18.3884 18.8103 18.9361C17.7517 17.9971 15.3944 15.8844 14.4331 14.9454C13.4718 14.0064 14.0326 13.0413 14.4331 12.6761Z" fill="#3674B0"/>
<path d="M5.56494 12.6761L2.64684 10.0156C2.04605 11.398 0.707154 14.4759 0.157863 15.7279C-0.391428 16.9799 0.615606 18.3884 1.18778 18.9361C2.24631 17.9971 4.60368 15.8844 5.56494 14.9454C6.5262 14.0064 5.96547 13.0413 5.56494 12.6761Z" fill="#B5B8BC"/>
<path d="M8.2378 18.2006L6.34961 20.0004L13.3874 20.0004C13.3588 19.9743 12.9754 19.5779 11.6709 18.2006C10.2976 16.6982 8.80997 17.5746 8.2378 18.2006Z" fill="#D32829"/>
</svg>

