<svg width="30" height="30" viewBox="0 0 30 30" fill="none" xmlns="http://www.w3.org/2000/svg">
<path d="M17.5087 14.4718L22.9152 9.07286C16.3244 -7.35892 9.52766 2.22627 6.95312 9.07286C7.8113 9.93357 10.094 12.2183 12.3596 14.4718C14.6252 16.7253 16.7363 15.4108 17.5087 14.4718Z" fill="#0A3E5E"/>
<path d="M21.6515 19.014L26.0282 15.0234C26.9293 17.097 28.9374 21.7135 29.7613 23.5915C30.5851 25.4694 29.0747 27.582 28.2165 28.4036C26.6289 26.9952 23.0933 23.8262 21.6515 22.4178C20.2098 21.0093 21.0508 19.5617 21.6515 19.014Z" fill="#3674B0"/>
<path d="M8.34848 19.014L3.97179 15.0234C3.07071 17.097 1.06258 21.7135 0.238739 23.5915C-0.585108 25.4694 0.925278 27.582 1.78345 28.4036C3.37107 26.9952 6.90675 23.8262 8.34848 22.4178C9.79021 21.0093 8.9492 19.5617 8.34848 19.014Z" fill="#B5B8BC"/>
<path d="M12.3574 27.2999L9.52539 29.9995L20.0809 29.9995C20.038 29.9604 19.463 29.3657 17.5064 27.2999C15.4468 25.0464 13.2155 26.361 12.3574 27.2999Z" fill="#D32829"/>
</svg>
